<svg xmlns="http://www.w3.org/2000/svg" width="134" height="50" viewBox="0 0 134 50"><defs><style>.a{fill:none;}.b,.d{fill:#f29a00;}.c{fill:#fff;}.d{fill-rule:evenodd;}</style></defs><rect class="a" width="134" height="50"/><path class="b" d="M151.053,53.43c-.807,1.1-5,3.29-15.458,3.766a98.22,98.22,0,0,1-16.411-.887,88.961,88.961,0,0,0-14.118-.847c-10.494.444-15.547,4.032-15.6,4.032l.121.194a19.885,19.885,0,0,1,3.81-1.54,46.522,46.522,0,0,1,11.7-1.839,88.606,88.606,0,0,1,14.086.806,98.575,98.575,0,0,0,16.443.9c13.23-.6,15.523-4.306,15.612-4.468Z" transform="translate(-17.247 -10.341)"/><path class="c" d="M55.031,7.832h-.476l-.081-1.226h0a2.479,2.479,0,0,1-2.406,1.371c-2.171,0-3.229-1.7-3.229-3.581S49.914.808,52.069.808A2.7,2.7,0,0,1,54.943,3.1h-.654a2.147,2.147,0,0,0-2.22-1.726c-1.824,0-2.591,1.516-2.591,3.024s.767,3.016,2.591,3.016A2.283,2.283,0,0,0,54.45,4.889H52.109V4.34h2.922Zm1.146-4.968h.557V4.026h0a1.841,1.841,0,0,1,1.921-1.234v.589a1.711,1.711,0,0,0-1.849,1.782V7.832H56.2Zm7.063,4.968h-.549v-.9h0a1.849,1.849,0,0,1-1.744,1.04C59.7,7.978,59.2,7.244,59.2,6.09V2.865h.605V6.09c0,.9.371,1.371,1.332,1.371s1.493-.984,1.493-1.992v-2.6h.605Zm1.146-4.968h.565v.944h0a1.865,1.865,0,0,1,1.776-1.089c1.51,0,2.236,1.226,2.236,2.629s-.71,2.629-2.236,2.629A1.768,1.768,0,0,1,65,6.889h0V9.671h-.613Zm2.341.363c-1.34,0-1.744.992-1.744,2.121s.468,2.121,1.744,2.121c1.154,0,1.614-1.089,1.614-2.121S67.9,3.228,66.728,3.228Zm7.636,2.121a2.368,2.368,0,1,1-4.706,0,2.375,2.375,0,1,1,4.722,0Zm-4.1,0a1.781,1.781,0,1,0,3.5,0,1.774,1.774,0,1,0-3.479,0ZM49.276,12.526H50.6L57.865,23.01h0V12.526h1.187V24.953H57.768L50.5,14.469h0V24.953H49.3Zm20.116,7.935c0,2.573-1.5,4.75-4.246,4.75s-4.254-2.177-4.254-4.75,1.5-4.75,4.254-4.75,4.27,2.185,4.27,4.75Zm-7.4,0c0,1.911,1.049,3.831,3.156,3.831s3.2-1.919,3.2-3.831-1.041-3.831-3.148-3.831-3.18,1.919-3.18,3.831Zm10.785-4.484H74.6V16.9H72.8v6.056c0,.71.1,1.129.888,1.177a9.218,9.218,0,0,0,.936-.048v.935c-.331,0-.646.04-.977.04-1.461,0-1.97-.492-1.945-2.024V16.9H70.086v-.919H71.7v-2.7h1.1Zm3.407,0h1.041v2.1h0a3.318,3.318,0,0,1,3.39-2.234v1.1a3.1,3.1,0,0,0-3.342,3.226v4.79H76.205Zm5.885,4.782c0,1.613.856,3.532,2.963,3.532a2.736,2.736,0,0,0,2.817-2.3h1.1a3.65,3.65,0,0,1-3.915,3.226c-2.858,0-4.036-2.194-4.036-4.75,0-2.363,1.2-4.75,4.036-4.75s4.036,2.524,3.947,5.048Zm5.812-.927a3.057,3.057,0,0,0-2.85-3.226c-1.776,0-2.793,1.573-2.963,3.226Zm2.793-7.306h4.294c3.746.089,5.715,2.145,5.715,6.218s-1.97,6.121-5.715,6.21H90.671Zm1.179,11.419h2.527c3.568,0,5.118-1.5,5.118-5.2s-1.55-5.226-5.118-5.21H91.849Zm10.4-5.242c.1-2.1,1.614-3.008,3.633-3.008,1.614,0,3.31.492,3.31,2.887v4.766a.581.581,0,0,0,.646.661,1.107,1.107,0,0,0,.347-.065v.919a3.232,3.232,0,0,1-.71.073c-1.114,0-1.292-.629-1.292-1.573h0A3.423,3.423,0,0,1,104.9,25.2c-1.614,0-3.011-.806-3.011-2.629,0-2.524,2.422-2.6,4.843-2.887.9-.1,1.4-.226,1.4-1.218,0-1.476-1.057-1.847-2.349-1.847a2.141,2.141,0,0,0-2.422,2.089Zm5.844,1.323h0c-.137.266-.63.347-.92.4-1.865.331-4.181.315-4.181,2.073a1.872,1.872,0,0,0,2,1.774,2.885,2.885,0,0,0,3.132-2.823Zm3.293-4.032h1.009V17.5h.057a3.124,3.124,0,0,1,2.938-1.774,2.5,2.5,0,0,1,2.583,1.758,3.027,3.027,0,0,1,2.841-1.774c1.97,0,2.979,1.024,2.979,3.153v6.089h-1.1v-6.04c0-1.476-.557-2.282-2.123-2.282-1.9,0-2.422,1.573-2.422,3.226v5.081h-1.1V18.865c0-1.218-.484-2.234-1.881-2.234-1.9,0-2.664,1.427-2.68,3.306v5.016h-1.1Zm15.152,4.782c0,1.613.856,3.532,2.963,3.532a2.736,2.736,0,0,0,2.817-2.3h1.1a3.675,3.675,0,0,1-3.915,3.226c-2.858,0-4.036-2.194-4.036-4.75,0-2.363,1.2-4.75,4.036-4.75s4.036,2.524,3.947,5.048Zm5.82-.927a3.069,3.069,0,0,0-2.858-3.226c-1.776,0-2.785,1.573-2.963,3.226ZM49.381,29.1h1.154V41.284H49.381Zm3.471,3.371h1.074v1.556h0a2.979,2.979,0,0,1,2.809-1.774c2.47,0,3.229,1.3,3.229,3.387v5.645H58.922V35.776c0-1.516-.492-2.661-2.236-2.661s-2.72,1.3-2.761,3.016v5.153H52.852Zm10.873,0h1.792v.9H63.725V39.3c0,.694.1,1.1.872,1.153a8.788,8.788,0,0,0,.919-.048v.919h-.961c-1.429,0-1.921-.476-1.905-1.976V33.373H61.118v-.9h1.574V29.832h1.074ZM67.7,37.155c0,1.565.807,3.452,2.9,3.452a2.687,2.687,0,0,0,2.761-2.25h1.074a3.59,3.59,0,0,1-3.834,3.153c-2.8,0-3.972-2.145-3.972-4.645,0-2.315,1.17-4.653,3.972-4.653s3.947,2.468,3.867,4.944Zm5.651-.9a2.958,2.958,0,0,0-2.793-3.137c-1.736,0-2.728,1.532-2.9,3.137Zm2.519-3.782H76.9v2.056h0a3.229,3.229,0,0,1,3.326-2.177v1.073a3.034,3.034,0,0,0-3.277,3.153v4.71H75.906Zm5.368,0h.993v1.484h.048a3.076,3.076,0,0,1,2.882-1.742,2.422,2.422,0,0,1,2.559,1.726,2.979,2.979,0,0,1,2.793-1.726c1.929,0,2.914,1.008,2.914,3.081v5.992H92.35V35.349c0-1.452-.541-2.234-2.075-2.234-1.857,0-2.422,1.532-2.422,3.169v5H86.812V35.292c0-1.185-.476-2.177-1.84-2.177-1.857,0-2.607,1.4-2.623,3.226v4.944h-1.09Zm14.829,4.685c0,1.565.807,3.452,2.89,3.452a2.671,2.671,0,0,0,2.761-2.25h1.074a3.59,3.59,0,0,1-3.834,3.153c-2.793,0-3.963-2.145-3.963-4.645,0-2.315,1.17-4.653,3.963-4.653s3.955,2.468,3.875,4.944Zm5.651-.9a2.964,2.964,0,0,0-2.8-3.137c-1.744,0-2.72,1.532-2.89,3.137Zm-3.067-5.008h-.872l1.792-2.419h1.324Zm13.4,10.04h-.985v-1.7h0A3.48,3.48,0,0,1,107.9,41.51c-2.672,0-3.947-2.161-3.947-4.645s1.275-4.653,3.947-4.653a3.14,3.14,0,0,1,3.051,1.927h0V29.1h1.074Zm-4.157-.645c2.284,0,3.084-1.919,3.084-3.742s-.807-3.75-3.084-3.75c-2.042,0-2.874,1.927-2.874,3.75s.831,3.71,2.882,3.71Zm6.224-11.508h1.049V30.8h-1.049Zm0,3.371h1.049v8.782h-1.049Zm9.34,2.758a2.421,2.421,0,0,0-2.494-2.113c-2.058,0-3.084,1.871-3.084,3.75s1.025,3.742,3.084,3.742a2.622,2.622,0,0,0,2.559-2.5h1.074a3.578,3.578,0,0,1-3.633,3.4c-2.688,0-4.157-2.129-4.157-4.645s1.469-4.653,4.157-4.653a3.293,3.293,0,0,1,3.568,3.016Zm2.535-.065c.1-2.065,1.55-2.952,3.56-2.952,1.55,0,3.229.476,3.229,2.831v4.6a.573.573,0,0,0,.63.645,1.107,1.107,0,0,0,.347-.065v.9a3.151,3.151,0,0,1-.7.065c-1.09,0-1.259-.613-1.259-1.532h0a3.351,3.351,0,0,1-3.229,1.79c-1.614,0-2.946-.806-2.946-2.573,0-2.468,2.422-2.548,4.714-2.823.888-.1,1.38-.226,1.38-1.194,0-1.444-1.033-1.806-2.3-1.806a2.065,2.065,0,0,0-2.349,2.048Zm5.723,1.25h0c-.137.258-.613.339-.9.4-1.824.323-4.085.306-4.085,2.024a1.824,1.824,0,0,0,1.953,1.734,2.839,2.839,0,0,0,3.067-2.758Z" transform="translate(-9.415 -0.155)"/><path class="d" d="M16.51,28.821l13.166,6.21c.71.363.807.339,1.421-.1l2.809-1.992c.654-.468.646-.629.194-1.226L17.527,9.377c-.476-.637-.6-.653-1.259-.185l-2.7,1.911c-.613.435-.67.589-.194,1.234l8.807,11.855.468.637c.694.935,1.049,1.331,1.849,2.339l.912,1.161a33.542,33.542,0,0,0-5.885-3.274L5.1,18.176c-.807-.379-.9-.4-1.518.04l-2.3,1.613c-.654.46-.67.581-.2,1.226L17.656,43.4c.476.645.605.661,1.259.194l2.656-1.879c.654-.468.646-.629.194-1.234l-8.193-11.04L11.247,26.3l-.936-1.2a45.473,45.473,0,0,0,6.2,3.7M18,28.966,32.364,26.41c.807-.121.872-.194,1.106-.9l1.074-3.226c.242-.758.145-.879-.581-1.113l-26.824-8.5c-.807-.25-.88-.194-1.13.556l-1.033,3.1c-.234.718-.186.871.581,1.113L19.8,21.966l.767.242c1.114.355,1.614.484,2.9.806l1.421.411a33.531,33.531,0,0,0-6.716.726L2.359,26.926c-.856.145-.969.2-1.2.911L.285,30.474c-.25.806-.194.863.573,1.113l26.816,8.524c.807.25.888.194,1.138-.565L29.87,36.49c.25-.75.145-.879-.573-1.1l-13.3-4.226-3.77-1.226-1.469-.427a48.65,48.65,0,0,0,7.265-.565m1.292-.726L29.4,17.886c.581-.556.589-.653.355-1.363L28.683,13.3c-.242-.75-.4-.806-1.13-.565L.713,21.3c-.767.242-.807.355-.581,1.1l1.033,3.1c.234.71.355.806,1.13.565l14.248-4.532.807-.242c1.114-.355,1.614-.556,2.833-.992l1.4-.5A32.82,32.82,0,0,0,16.542,24.3L5.4,35.587c-.6.613-.654.718-.42,1.435l.88,2.6c.242.758.355.806,1.13.565l26.824-8.492c.807-.25.807-.355.573-1.113l-1.017-3.056c-.25-.758-.4-.806-1.13-.565L18.98,31.176l-3.762,1.185-1.445.5a46,46,0,0,0,5.513-4.613m.613-1.331L21.854,12.74c.137-.806.089-.863-.525-1.3L18.52,9.458c-.654-.468-.807-.419-1.251.194L.688,31.974c-.468.645-.452.766.2,1.226l2.688,1.927c.622.46.783.46,1.267-.2l8.8-11.855.476-.645c.678-.927.969-1.371,1.7-2.419l.807-1.2a31.586,31.586,0,0,0-1.372,6.452l-2.18,15.573c-.121.806-.1.968.517,1.411l2.293,1.613c.654.46.807.444,1.259-.194L33.712,21.345c.476-.645.46-.766-.194-1.234l-2.664-1.887c-.646-.46-.807-.411-1.251.194L21.41,29.458l-2.333,3.129-.864,1.242a46.213,46.213,0,0,0,1.687-6.9m-.307-1.435L12.668,12.9c-.363-.71-.452-.75-1.219-.75H7.986c-.807,0-.9.129-.9.879v27.6c0,.806.089.879.9.879H11.3c.807,0,.9-.081.9-.879V25.184c0-1.145-.04-1.677-.089-2.952v-1.46A31.066,31.066,0,0,0,14.9,26.8l7.523,13.863c.412.758.5.806,1.267.806H26.52c.807,0,.9-.081.9-.879V13.007c0-.806-.089-.879-.9-.879H23.234c-.807,0-.9.129-.9.879v19.04a45.194,45.194,0,0,0-2.785-6.556" transform="translate(-0.002 -1.716)"/></svg>