<svg xmlns="http://www.w3.org/2000/svg" width="32" height="32" viewBox="0 0 32 32"><defs><style>.a{fill:#1a171b;}</style></defs><path class="a" d="M-3021-1356a16.017,16.017,0,0,1-16-16,16.018,16.018,0,0,1,16-16,16.019,16.019,0,0,1,16,16A16.018,16.018,0,0,1-3021-1356Zm-6.185-17.055a1.24,1.24,0,0,0-.883.367,1.243,1.243,0,0,0-.366.883,1.243,1.243,0,0,0,.366.884l3.993,3.993a1.234,1.234,0,0,0,.884.366,1.24,1.24,0,0,0,.883-.366l3.055-3.055,5.326-5.326a1.243,1.243,0,0,0,.368-.885,1.242,1.242,0,0,0-.368-.885,1.239,1.239,0,0,0-.883-.366,1.242,1.242,0,0,0-.879.362l-7.5,7.5-3.11-3.108A1.241,1.241,0,0,0-3027.186-1373.055Z" transform="translate(3037 1388)"/></svg>