<svg xmlns="http://www.w3.org/2000/svg" width="20" height="20" viewBox="0 0 20 20"><defs><style>.a{fill:none;}.b{fill:#ec6e0c;}</style></defs><path class="b" d="M10.333,6.333V4.667A1.672,1.672,0,0,0,8.667,3h-5A1.672,1.672,0,0,0,2,4.667V16.333A1.672,1.672,0,0,0,3.667,18H17a1.672,1.672,0,0,0,1.667-1.667V8A1.672,1.672,0,0,0,17,6.333Zm-1.667,10h-5V14.667h5Zm0-3.333h-5V11.333h5Zm0-3.333h-5V8h5Zm0-3.333h-5V4.667h5Zm8.333,10H10.333V8H17ZM15.333,9.667H12v1.667h3.333Zm0,3.333H12v1.667h3.333Z" transform="translate(-0.333 -0.5)"/></svg>