<svg xmlns="http://www.w3.org/2000/svg" width="32" height="32" viewBox="0 0 32 32"><defs><style>.a{fill:#1a171b;}</style></defs><path class="a" d="M-2892-1059a15.9,15.9,0,0,1-11.314-4.686A15.894,15.894,0,0,1-2908-1075a15.9,15.9,0,0,1,4.686-11.314A15.9,15.9,0,0,1-2892-1091a15.9,15.9,0,0,1,11.314,4.686A15.9,15.9,0,0,1-2876-1075a15.894,15.894,0,0,1-4.687,11.313A15.9,15.9,0,0,1-2892-1059Zm-4.616-24a1.4,1.4,0,0,0-1.384,1.406v13.188a1.4,1.4,0,0,0,1.384,1.407h9.231a1.4,1.4,0,0,0,1.384-1.407v-10.375a.478.478,0,0,0-.135-.331l-3.693-3.749a.455.455,0,0,0-.326-.138Zm9.231,15.062h-9.231a.466.466,0,0,1-.462-.469v-13.188a.465.465,0,0,1,.462-.468h6v2.344a1.4,1.4,0,0,0,1.384,1.406h2.308v9.906A.465.465,0,0,1-2887.385-1067.937Zm-7.385-4.039a.466.466,0,0,0-.462.469.465.465,0,0,0,.462.468h3.692a.466.466,0,0,0,.462-.468.466.466,0,0,0-.462-.469Zm0-2.2a.466.466,0,0,0-.462.469.466.466,0,0,0,.462.469h5.538a.466.466,0,0,0,.462-.469.466.466,0,0,0-.462-.469Zm0-2.2a.466.466,0,0,0-.462.469.466.466,0,0,0,.462.469h5.538a.466.466,0,0,0,.462-.469.466.466,0,0,0-.462-.469Zm7.193-2.875h-1.655a.465.465,0,0,1-.461-.469v-1.681l2.114,2.148Z" transform="translate(2908 1091)"/></svg>