<svg xmlns="http://www.w3.org/2000/svg" width="20" height="20" viewBox="0 0 20 20"><defs><style>.a{fill:none;}.b{fill:#ec6e0c;}</style></defs><path class="b" d="M6.167,2.667h-2.5v2.5H2V1H6.167Zm12.5,2.5V1H14.5V2.667H17v2.5Zm-12.5,12.5h-2.5v-2.5H2v4.167H6.167ZM17,15.167v2.5H14.5v1.667h4.167V15.167Zm-2.5-10H6.167v10H14.5Zm1.667,10A1.672,1.672,0,0,1,14.5,16.833H6.167A1.672,1.672,0,0,1,4.5,15.167v-10A1.672,1.672,0,0,1,6.167,3.5H14.5a1.672,1.672,0,0,1,1.667,1.667ZM12.833,6.833h-5V8.5h5Zm0,2.5h-5V11h5Zm0,2.5h-5V13.5h5Z" transform="translate(-0.333 -0.167)"/></svg>