<svg xmlns="http://www.w3.org/2000/svg" width="31.999" height="32" viewBox="0 0 31.999 32"><defs><style>.a{fill:#1a171b;}</style></defs><path class="a" d="M-2875-927a15.9,15.9,0,0,1-11.314-4.686A15.9,15.9,0,0,1-2891-943a15.9,15.9,0,0,1,4.686-11.314A15.9,15.9,0,0,1-2875-959a15.894,15.894,0,0,1,11.313,4.687A15.9,15.9,0,0,1-2859-943a15.9,15.9,0,0,1-4.686,11.314A15.9,15.9,0,0,1-2875-927Zm0-14.381h0l4.045,4.047a1.137,1.137,0,0,0,.81.335,1.137,1.137,0,0,0,.809-.335,1.148,1.148,0,0,0,0-1.619l-4.047-4.046,4.047-4.046a1.137,1.137,0,0,0,.335-.809,1.135,1.135,0,0,0-.335-.809,1.139,1.139,0,0,0-.81-.335,1.139,1.139,0,0,0-.81.335l-4.046,4.046-4.046-4.046a1.137,1.137,0,0,0-.809-.335,1.135,1.135,0,0,0-.809.335,1.135,1.135,0,0,0-.335.809,1.137,1.137,0,0,0,.335.809l4.046,4.046-4.045,4.046a1.136,1.136,0,0,0-.335.808,1.137,1.137,0,0,0,.335.81,1.137,1.137,0,0,0,.81.336,1.143,1.143,0,0,0,.809-.336l4.044-4.045Z" transform="translate(2891 959)"/></svg>