<svg width="20" height="20" viewBox="0 0 20 20" fill="none" xmlns="http://www.w3.org/2000/svg">
<path d="M6.25599 5.5H13.742L9.99099 10.225L6.25599 5.5ZM4.19999 5.207C5.70899 7.15 8.49999 10.75 8.49999 10.75V15.25C8.50052 15.4488 8.57971 15.6392 8.72025 15.7797C8.86078 15.9203 9.05124 15.9995 9.24999 16H10.75C10.9486 15.9992 11.1388 15.9199 11.2791 15.7794C11.4194 15.6389 11.4985 15.4486 11.499 15.25V10.75C11.499 10.75 14.284 7.15 15.799 5.207C15.8854 5.09589 15.9386 4.96268 15.9527 4.82266C15.9667 4.68264 15.941 4.54149 15.8784 4.41544C15.8159 4.28938 15.719 4.18353 15.599 4.11005C15.479 4.03656 15.3407 3.99842 15.2 4H4.78799C4.64821 4.00049 4.51137 4.04013 4.39297 4.11444C4.27458 4.18875 4.17937 4.29474 4.11815 4.42041C4.05693 4.54607 4.03215 4.68637 4.04662 4.8254C4.06108 4.96444 4.11422 5.09663 4.19999 5.207V5.207Z" fill="#EC6E0C"/>
</svg>
