<svg xmlns="http://www.w3.org/2000/svg" width="20" height="20" viewBox="0 0 20 20"><defs><style>.a{fill:none;}.b{fill:#ec6e0c;}</style></defs><path class="b" d="M21.333,8.667V7H19.667V8.667H18v1.667h1.667V12h1.667V10.333H23V8.667Z" transform="translate(-3 -1.167)"/><path class="b" d="M7.333,10.667A3.333,3.333,0,1,0,4,7.333,3.332,3.332,0,0,0,7.333,10.667Zm0-5A1.667,1.667,0,1,1,5.667,7.333,1.672,1.672,0,0,1,7.333,5.667Z" transform="translate(-0.667 -0.667)"/><path class="b" d="M6.667,13C4.442,13,0,14.117,0,16.333v2.5H13.333v-2.5C13.333,14.117,8.892,13,6.667,13Zm5,4.167h-10v-.825c.167-.6,2.75-1.675,5-1.675s4.833,1.075,5,1.667Z" transform="translate(0 -2.167)"/><path class="b" d="M12.51,4.05a4.984,4.984,0,0,1,0,6.583,3.317,3.317,0,0,0,0-6.583Z" transform="translate(-2.085 -0.675)"/><path class="b" d="M16.53,13.83a3.531,3.531,0,0,1,1.225,2.642v2.5h1.667v-2.5C19.422,15.263,18.1,14.38,16.53,13.83Z" transform="translate(-2.755 -2.305)"/></svg>