<svg xmlns="http://www.w3.org/2000/svg" width="20" height="20" viewBox="0 0 20 20"><defs><style>.a{fill:none;}.b{fill:#ec6e0c;}</style></defs><path class="b" d="M14.435,3.03a.819.819,0,0,1,.058-1.1l.008-.008a.839.839,0,0,1,1.242.067,9.174,9.174,0,0,1,.092,11.467l-1.192-1.192a7.485,7.485,0,0,0-.208-9.233ZM6.543,4.163a4.209,4.209,0,0,1,2.092-.55A4.126,4.126,0,0,1,12.8,7.78,5.107,5.107,0,0,1,12.276,9.9L13.51,11.13c.017-.033.042-.067.067-.108a6.841,6.841,0,0,0,.892-3.242A5.766,5.766,0,0,0,8.635,1.946a5.852,5.852,0,0,0-3.308,1ZM8.635,5.7a1.893,1.893,0,0,0-.492.067l2.508,2.508a1.893,1.893,0,0,0,.067-.492A2.084,2.084,0,0,0,8.635,5.7Zm8.742,11.658L3.226,3.2A.831.831,0,0,0,2.051,4.38L3.235,5.563a5.524,5.524,0,0,0-.358,1.283.814.814,0,0,0,.808.933h.033a.807.807,0,0,0,.8-.683c.017-.067.033-.133.05-.192l5.517,5.517a4.769,4.769,0,0,0-1.892,2.417,2.9,2.9,0,0,1-1.425,1.983,1.586,1.586,0,0,1-.633.125A1.684,1.684,0,0,1,4.551,15.8a.836.836,0,0,0-1.583.525A3.34,3.34,0,0,0,7.5,18.321a4.536,4.536,0,0,0,2.275-2.958A3.356,3.356,0,0,1,11.2,13.655c.025-.017.042-.033.067-.05l4.925,4.925a.834.834,0,0,0,1.183-1.175Z" transform="translate(-0.301 -0.28)"/></svg>