<svg xmlns="http://www.w3.org/2000/svg" width="20" height="20" viewBox="0 0 20 20"><defs><style>.a{fill:none;}.b{fill:#ec6e0c;}</style></defs><path class="b" d="M10.333,2a8.333,8.333,0,1,0,8.333,8.333A8.336,8.336,0,0,0,10.333,2Zm0,15A6.667,6.667,0,1,1,17,10.333,6.676,6.676,0,0,1,10.333,17ZM9.5,13.667h1.667v1.667H9.5Zm1.342-8.3A3.335,3.335,0,0,0,7.15,7.692a.756.756,0,0,0,.725.975h.167a.8.8,0,0,0,.733-.558,1.668,1.668,0,0,1,1.917-1.067A1.686,1.686,0,0,1,12,8.792c-.083,1.117-1.35,1.358-2.042,2.4,0,.008-.008.008-.008.017s-.017.025-.025.042a2.776,2.776,0,0,0-.208.417c-.008.025-.025.042-.033.067a.531.531,0,0,0-.017.058A3.1,3.1,0,0,0,9.5,12.833h1.667a1.77,1.77,0,0,1,.233-.892c.017-.025.025-.05.042-.075a2.3,2.3,0,0,1,.233-.325c.008-.008.017-.025.025-.033a2.929,2.929,0,0,1,.275-.283c.8-.758,1.883-1.375,1.658-2.967a3.4,3.4,0,0,0-2.792-2.892Z" transform="translate(-0.333 -0.333)"/></svg>