<svg xmlns="http://www.w3.org/2000/svg" width="20" height="20" viewBox="0 0 20 20"><defs><style>.a{fill:none;}.b{fill:#5b5b5f;}</style></defs><path class="b" d="M21.327,10.147a3.407,3.407,0,0,1-.3,1.2.18.18,0,0,1-.264.061h0a.2.2,0,0,1-.061-.264h0a2.228,2.228,0,0,0,.183-.588l.041-1.217a2.678,2.678,0,0,0-.162-.527.179.179,0,0,1,.1-.243.188.188,0,0,1,.243.081,3.388,3.388,0,0,1,.223,1.5m-1.156.974a.2.2,0,1,1-.345-.183h0a2.171,2.171,0,0,0,.122-.608l-.081-1.217a4.264,4.264,0,0,0-.2-.507.191.191,0,0,1,.325-.2,2.891,2.891,0,0,1,.365,1.481,3.046,3.046,0,0,1-.183,1.237m-.832-.487a16.537,16.537,0,0,1-1.1,3.022,5.909,5.909,0,0,0-.264,2.576,23.742,23.742,0,0,1-.081,2.941.425.425,0,0,1-.446.345.441.441,0,0,1-.446-.426c-.1-.629-.325-3.042-.385-3.367-.041-.183-.2-.487-.365-.487-.122,0-.264.162-.365.608-.243,1.1-.629,3.631-.75,4.2s-.345.649-.487.649a.246.246,0,0,1-.1-.02h-.02a.442.442,0,0,1-.467-.507c.02-.548.487-4.138.467-4.482,0-.2-.061-.385-.162-.385-.081,0-.162.081-.284.264-.3.467-1.947,3.367-2.454,4.341a.482.482,0,0,1-.467.264.628.628,0,0,1-.325-.081.721.721,0,0,1-.223-.71c.061-.243,1.805-4.036,2.049-4.5.162-.3.1-.629-.122-.629a.638.638,0,0,0-.426.284c-.548.588-2.86,2.88-3.144,3.184a.485.485,0,0,1-.365.2.622.622,0,0,1-.385-.183A.515.515,0,0,1,8.163,17c.1-.122.811-1.055,1.6-2.069.2-.264.406-.548.608-.811l.122-.162.041-.041.1-.142.02-.081c.02-.041.061-.081.081-.122l.041-.061c.02-.041.061-.081.081-.122l.041-.061.081-.1.061-.081c.02-.041.041-.061.061-.1l.061-.081.061-.081.041-.061.061-.081.041-.061a.154.154,0,0,0,.041-.081l.041-.061.041-.081c.02-.02.02-.041.041-.061s.02-.041.041-.061l.02-.041c.02-.041.041-.061.041-.1.426-.872,1.2-2.211-.223-2.211a1.248,1.248,0,0,0-.264.02,12.116,12.116,0,0,1-1.258.081,2.41,2.41,0,0,1-.994-.162c-.284-.1-.69-.406-.548-.669s.852-.142,1.136-.243l.284-.1h.02A12.262,12.262,0,0,0,11.1,8.464a6.431,6.431,0,0,0,.75-.345A16.989,16.989,0,0,1,15,6.78a3.961,3.961,0,0,1,.69-.061,2.247,2.247,0,0,1,.872.142,9.429,9.429,0,0,0,2.333,1.7c.081-.041.791.629.446,2.069M5.567,13.23a14.8,14.8,0,0,1-.75-3.124,6.126,6.126,0,0,0-1.2-2.292A21.866,21.866,0,0,1,2.058,5.32a.449.449,0,0,1,.791-.406c.426.467,1.947,2.353,2.191,2.6.223.223.933.527.548-.507-.406-1.055-1.5-3.367-1.7-3.915-.3-.791.142-.852.142-.852a.455.455,0,0,1,.69.162C5,2.866,6.6,6.111,6.8,6.395s.446.406.446-.142c-.02-.568-.243-3.874-.365-4.969C6.845.9,7.25.7,7.453.7a.728.728,0,0,1,.588.446c.081.243.73,4.361.811,4.888.061.527.527.771.649-.02s.791-3.975.852-4.381a.471.471,0,0,1,.629-.426.542.542,0,0,1,.467.588c-.02.3-.345,4.32-.284,5.679a9.884,9.884,0,0,1-1.481.507L9.644,8l-.041.02-.365.061a.761.761,0,0,0-.2.02,1.6,1.6,0,0,0-1.481.69,1.214,1.214,0,0,0-.061.994A2,2,0,0,0,8.609,10.8l.041.02a2.925,2.925,0,0,0,1.278.2,11.306,11.306,0,0,0,1.3-.081,6.932,6.932,0,0,1-.325.669l-.081.142a29.482,29.482,0,0,1-2.13,2.961,5.852,5.852,0,0,0-1.643.061A2.176,2.176,0,0,1,5.567,13.23M6.5,15.786a.185.185,0,0,1-.243.1h0a3.138,3.138,0,0,1-1.2-.953,3.581,3.581,0,0,1-.588-1.1.187.187,0,0,1,.365-.081,2.006,2.006,0,0,0,.264.568l.811.933a4.264,4.264,0,0,0,.467.284.175.175,0,0,1,.122.243h0m-.994.507a.194.194,0,0,1-.264.081,3.288,3.288,0,0,1-1.1-1.075,2.82,2.82,0,0,1-.467-1.136.193.193,0,0,1,.385-.02h0a2.046,2.046,0,0,0,.2.588l.71.994a3.969,3.969,0,0,0,.446.325c.081.02.122.142.081.243h0" transform="translate(-1.722 -0.694)"/></svg>