<svg width="100%" height="100%" viewBox="0 0 36 36" version="1.1" xmlns="http://www.w3.org/2000/svg" xmlns:xlink="http://www.w3.org/1999/xlink" xml:space="preserve" style="fill-rule:evenodd;clip-rule:evenodd;stroke-linejoin:round;stroke-miterlimit:2;">
    <g transform="matrix(1,0,0,1,-1440.97,-1.33121)">
        <g id="eye-loading" transform="matrix(1,0,0,1,1440.97,1.33121)">
            <g transform="matrix(1,0,0,1,-1440.97,-1.33121)">
                <path d="M1458.97,30.395C1452.87,30.395 1447.91,25.438 1447.91,19.331C1447.91,13.225 1452.87,8.267 1458.97,8.267C1465.08,8.267 1470.04,13.225 1470.04,19.331C1470.04,19.828 1470.44,20.231 1470.94,20.231C1471.43,20.231 1471.84,19.828 1471.84,19.331C1471.84,12.231 1466.07,6.467 1458.97,6.467C1451.88,6.467 1446.11,12.231 1446.11,19.331C1446.11,26.431 1451.88,32.195 1458.97,32.195C1459.47,32.195 1459.87,31.792 1459.87,31.295C1459.87,30.798 1459.47,30.395 1458.97,30.395Z"/>
            </g>
        </g>
    </g>
</svg>
