<svg xmlns="http://www.w3.org/2000/svg" width="20" height="20" viewBox="0 0 20 20"><defs><style>.a{fill:none;}.b{fill:#ec6e0c;}</style></defs><path class="b" d="M17,5.333H13.667V3.667A1.672,1.672,0,0,0,12,2H8.667A1.672,1.672,0,0,0,7,3.667V5.333H3.667A1.672,1.672,0,0,0,2,7V17a1.672,1.672,0,0,0,1.667,1.667H17A1.672,1.672,0,0,0,18.667,17V7A1.672,1.672,0,0,0,17,5.333ZM8.667,3.667H12V5.333H8.667ZM17,17H3.667V7H17Z" transform="translate(-0.333 -0.333)"/><path class="b" d="M12.167,10H10.5v2.5H8v1.667h2.5v2.5h1.667v-2.5h2.5V12.5h-2.5Z" transform="translate(-1.333 -1.667)"/></svg>