<svg xmlns="http://www.w3.org/2000/svg" width="20" height="20" viewBox="0 0 20 20"><defs><style>.a{fill:none;}.b{fill:#ec6e0c;}</style></defs><path class="b" d="M16.811,14.825,15.736,13.75V9.583a5.077,5.077,0,0,0-3.75-5.267V3.75a1.25,1.25,0,1,0-2.5,0v.567c-2.392.567-3.75,2.7-3.75,5.267V13.75L4.661,14.825a.833.833,0,0,0,.583,1.425H16.219a.834.834,0,0,0,.592-1.425Zm-2.742-.242H7.4v-5c0-2.067,1.258-3.75,3.333-3.75s3.333,1.683,3.333,3.75ZM10.736,18.75A1.672,1.672,0,0,0,12.4,17.083H9.069A1.666,1.666,0,0,0,10.736,18.75Z" transform="translate(-0.736 -0.417)"/></svg>