<svg xmlns="http://www.w3.org/2000/svg" width="20" height="20" viewBox="0 0 20 20"><defs><style>.a{fill:none;}.b{fill:#1a171b;}</style></defs><g transform="translate(-48.818 4)"><path class="b" d="M55.318,4.909h7a.462.462,0,0,0,.352-.162.57.57,0,0,0,0-.767L59.17.162a.463.463,0,0,0-.7,0l-3.5,3.818a.57.57,0,0,0,0,.767A.462.462,0,0,0,55.318,4.909Z"/><path class="b" d="M62.318,237.549h-7a.462.462,0,0,0-.352.162.57.57,0,0,0,0,.767l3.5,3.818a.462.462,0,0,0,.7,0l3.5-3.818a.569.569,0,0,0,0-.767A.462.462,0,0,0,62.318,237.549Z" transform="translate(0 -230.458)"/></g></svg>