<svg xmlns="http://www.w3.org/2000/svg" width="20" height="20" viewBox="0 0 20 20"><defs><style>.a{fill:none;}.b{fill:#ec6e0c;}</style></defs><path class="b" d="M10.333,2a8.333,8.333,0,1,0,8.333,8.333A8.336,8.336,0,0,0,10.333,2Zm0,15A6.667,6.667,0,1,1,17,10.333,6.676,6.676,0,0,1,10.333,17Zm.742-7.417c-1.483-.492-2.2-.8-2.2-1.583,0-.85.925-1.158,1.508-1.158a1.61,1.61,0,0,1,1.583,1.117L13.283,7.4a2.855,2.855,0,0,0-2.217-1.858V4.5H9.608V5.55A2.57,2.57,0,0,0,7.425,8.017c0,1.892,1.875,2.425,2.792,2.758,1.317.467,1.9.892,1.9,1.692,0,.942-.875,1.342-1.65,1.342a2.2,2.2,0,0,1-2-1.742l-1.383.558A3.364,3.364,0,0,0,9.6,15.092v1.075h1.458V15.133a2.763,2.763,0,0,0,2.517-2.683C13.583,11.292,13.075,10.275,11.075,9.583Z" transform="translate(-0.333 -0.333)"/></svg>