<svg xmlns="http://www.w3.org/2000/svg" width="20" height="20" viewBox="0 0 20 20"><defs><style>.a{fill:none;}.b{fill:#ec6e0c;}</style></defs><path class="b" d="M17,2H7A1.672,1.672,0,0,0,5.333,3.667v10A1.672,1.672,0,0,0,7,15.333H17a1.672,1.672,0,0,0,1.667-1.667v-10A1.672,1.672,0,0,0,17,2Zm0,11.667H7v-10H17ZM3.667,5.333H2V17a1.672,1.672,0,0,0,1.667,1.667H15.333V17H3.667Zm10,5v-2.5A.836.836,0,0,0,12.833,7H11.167v4.167h1.667A.836.836,0,0,0,13.667,10.333ZM12,7.833h.833v2.5H12ZM15.333,9.5h.833V8.667h-.833V7.833h.833V7H14.5v4.167h.833Zm-6.667,0H9.5a.836.836,0,0,0,.833-.833V7.833A.836.836,0,0,0,9.5,7H7.833v4.167h.833Zm0-1.667H9.5v.833H8.667Z" transform="translate(-0.333 -0.333)"/></svg>