<svg xmlns="http://www.w3.org/2000/svg" width="20" height="20" viewBox="0 0 20 20"><defs><style>.a{fill:none;}.b{fill:#ec6e0c;}</style></defs><path class="b" d="M10.667,5.583a1.75,1.75,0,1,1-1.75,1.75,1.75,1.75,0,0,1,1.75-1.75m0,7.5c2.475,0,5.083,1.217,5.083,1.75v.917H5.583v-.917c0-.533,2.608-1.75,5.083-1.75m0-9.083A3.333,3.333,0,1,0,14,7.333,3.332,3.332,0,0,0,10.667,4Zm0,7.5C8.442,11.5,4,12.617,4,14.833V16.5a.836.836,0,0,0,.833.833H16.5a.836.836,0,0,0,.833-.833V14.833C17.333,12.617,12.892,11.5,10.667,11.5Z" transform="translate(-0.667 -0.667)"/></svg>