<svg xmlns="http://www.w3.org/2000/svg" width="20" height="20" viewBox="0 0 20 20"><defs><style>.a{fill:none;}.b{fill:#ec6e0c;}</style></defs><path class="b" d="M17,4H3.667A1.672,1.672,0,0,0,2,5.667v10a1.672,1.672,0,0,0,1.667,1.667H17a1.672,1.672,0,0,0,1.667-1.667v-10A1.672,1.672,0,0,0,17,4Zm0,11.667H3.667v-10H17Z" transform="translate(-0.333 -0.667)"/><path class="b" d="M6.243,10.25V14H7.2V9H6.477L5.01,10.058l.483.742Z" transform="translate(-0.835 -1.5)"/><path class="b" d="M11.152,9.875a.614.614,0,0,1,.675.6,1.208,1.208,0,0,1-.45.883c-.3.317-.883.9-1.775,1.792V14h3.242v-.825H10.868l-.025-.042c.567-.567.958-.95,1.167-1.158a2.193,2.193,0,0,0,.767-1.55,1.352,1.352,0,0,0-.758-1.233,1.952,1.952,0,0,0-1.625-.025,1.551,1.551,0,0,0-.833.958l.842.35A.787.787,0,0,1,11.152,9.875Z" transform="translate(-1.593 -1.5)"/><path class="b" d="M16.648,13.117a.866.866,0,0,1-.85-.717l-.858.342A1.7,1.7,0,0,0,16.648,14a1.644,1.644,0,0,0,1.467-.708,1.355,1.355,0,0,0-.008-1.467,1.223,1.223,0,0,0-.567-.433v-.058a1.156,1.156,0,0,0,.433-.4,1.253,1.253,0,0,0-.017-1.308A1.569,1.569,0,0,0,16.607,9a1.557,1.557,0,0,0-1.542,1.033l.825.342a.715.715,0,0,1,.708-.533.559.559,0,0,1,.625.542c0,.483-.458.6-.733.6h-.383v.833h.417c.467,0,.867.2.867.658A.7.7,0,0,1,16.648,13.117Z" transform="translate(-2.49 -1.5)"/></svg>