<svg xmlns="http://www.w3.org/2000/svg" width="20" height="20" viewBox="0 0 20 20"><defs><style>.a{fill:none;}.b{fill:#ec6e0c;}</style></defs><path class="b" d="M16.167,7.167h-.833V3h-10V7.167H4.5A2.5,2.5,0,0,0,2,9.667v5H5.333V18h10V14.667h3.333v-5A2.5,2.5,0,0,0,16.167,7.167ZM7,4.667h6.667v2.5H7Zm6.667,10v1.667H7V13h6.667ZM15.333,13V11.333h-10V13H3.667V9.667A.836.836,0,0,1,4.5,8.833H16.167A.836.836,0,0,1,17,9.667V13Z" transform="translate(-0.333 -0.5)"/><circle class="b" cx="0.833" cy="0.833" r="0.833" transform="translate(14.167 8.75)"/></svg>