<svg xmlns="http://www.w3.org/2000/svg" width="20" height="20" viewBox="0 0 20 20"><defs><style>.a{fill:none;}.b{fill:#ec6e0c;}</style></defs><path class="b" d="M15,1H6.667A1.672,1.672,0,0,0,5,2.667v15a1.672,1.672,0,0,0,1.667,1.667H15a1.672,1.672,0,0,0,1.667-1.667v-15A1.672,1.672,0,0,0,15,1Zm0,16.667H6.667v-.833H15Zm0-2.5H6.667v-.4a7.486,7.486,0,0,1,8.333,0Zm0-2.325a9.113,9.113,0,0,0-8.333,0V5.167H15ZM15,3.5H6.667V2.667H15Z" transform="translate(-0.833 -0.167)"/><path class="b" d="M11.5,12A2.5,2.5,0,1,0,9,9.5,2.5,2.5,0,0,0,11.5,12Zm0-3.333a.833.833,0,1,1-.833.833A.836.836,0,0,1,11.5,8.667Z" transform="translate(-1.5 -1.167)"/></svg>