<svg xmlns="http://www.w3.org/2000/svg" width="20" height="20" viewBox="0 0 20 20"><defs><style>.a{fill:none;}.b{fill:#ec6e0c;}</style></defs><path class="b" d="M12.333,2H5.667A1.672,1.672,0,0,0,4,3.667V17a1.672,1.672,0,0,0,1.667,1.667h10A1.672,1.672,0,0,0,17.333,17V7ZM5.667,17V3.667H11.5V7h4.167V17Zm4.167-.833H11.5v-.833h.833a.836.836,0,0,0,.833-.833V12a.836.836,0,0,0-.833-.833h-2.5v-.833h3.333V8.667H11.5V7.833H9.833v.833H9a.836.836,0,0,0-.833.833V12A.836.836,0,0,0,9,12.833h2.5v.833H8.167v1.667H9.833Z" transform="translate(-0.667 -0.333)"/></svg>