<svg xmlns="http://www.w3.org/2000/svg" width="20" height="20" viewBox="0 0 20 20"><defs><style>.a{fill:none;}.b{fill:#ec6e0c;}</style></defs><path class="b" d="M16.57,11.15a6.494,6.494,0,0,0,.058-.817,6.494,6.494,0,0,0-.058-.817l1.758-1.375a.42.42,0,0,0,.1-.533L16.762,4.725a.416.416,0,0,0-.367-.208.389.389,0,0,0-.142.025l-2.075.833a6.088,6.088,0,0,0-1.408-.817L12.453,2.35A.406.406,0,0,0,12.045,2H8.712a.406.406,0,0,0-.408.35L7.987,4.558a6.4,6.4,0,0,0-1.408.817L4.5,4.542a.472.472,0,0,0-.15-.025A.413.413,0,0,0,4,4.725L2.328,7.608a.411.411,0,0,0,.1.533L4.187,9.517a6.609,6.609,0,0,0-.058.817,6.609,6.609,0,0,0,.058.817L2.428,12.525a.42.42,0,0,0-.1.533L4,15.942a.416.416,0,0,0,.367.208.389.389,0,0,0,.142-.025l2.075-.833a6.088,6.088,0,0,0,1.408.817L8.3,18.317a.406.406,0,0,0,.408.35h3.333a.406.406,0,0,0,.408-.35l.317-2.208a6.4,6.4,0,0,0,1.408-.817l2.075.833a.472.472,0,0,0,.15.025.413.413,0,0,0,.358-.208l1.667-2.883a.42.42,0,0,0-.1-.533ZM14.92,9.725a4.452,4.452,0,0,1,.042.608c0,.175-.017.358-.042.608l-.117.942.742.583.9.7-.583,1.008L14.8,13.75l-.867-.35-.75.567a4.881,4.881,0,0,1-1.042.608l-.883.358-.133.942L10.962,17H9.8l-.158-1.125L9.5,14.933l-.883-.358A4.728,4.728,0,0,1,7.6,13.983L6.837,13.4l-.883.358L4.9,14.183l-.583-1.008.9-.7.742-.583-.117-.942c-.025-.258-.042-.45-.042-.617s.017-.358.042-.608l.117-.942L5.212,8.2l-.9-.7L4.9,6.492l1.058.425.867.35L7.57,6.7a4.881,4.881,0,0,1,1.042-.608L9.5,5.733l.133-.942L9.8,3.667h1.158l.158,1.125.133.942.883.358a4.728,4.728,0,0,1,1.025.592l.758.583.883-.358,1.058-.425.583,1.008-.892.708-.742.583.117.942ZM10.378,7a3.333,3.333,0,1,0,3.333,3.333A3.332,3.332,0,0,0,10.378,7Zm0,5a1.667,1.667,0,1,1,1.667-1.667A1.672,1.672,0,0,1,10.378,12Z" transform="translate(-0.378 -0.333)"/></svg>