<svg xmlns="http://www.w3.org/2000/svg" width="32" height="32" viewBox="0 0 32 32"><defs><style>.a{fill:none;}.b{fill:#EC6E0C;}</style></defs><g transform="translate(0 2)"><g transform="translate(0 0)"><path class="b" d="M31.718,63.19,17.679,39.336a1.937,1.937,0,0,0-3.358,0L.282,63.19a2.051,2.051,0,0,0-.028,2.025,1.953,1.953,0,0,0,1.707,1.021H30.039a1.953,1.953,0,0,0,1.707-1.021A2.051,2.051,0,0,0,31.718,63.19ZM16.011,46.616A1.339,1.339,0,0,1,17.5,47.908c0,2.52-.289,6.142-.289,8.663,0,.657-.7.932-1.2.932-.662,0-1.22-.275-1.22-.932,0-2.52-.289-6.142-.289-8.663A1.336,1.336,0,0,1,16.011,46.616Zm.021,15.61A1.632,1.632,0,1,1,17.6,60.6,1.637,1.637,0,0,1,16.031,62.227Z" transform="translate(0 -38.365)"/></g></g></svg>