<svg width="32" height="32" viewBox="0 0 32 32" fill="none" xmlns="http://www.w3.org/2000/svg">
<path d="M16 32C12.8355 32 9.74206 31.0616 7.11088 29.3035C4.47969 27.5454 2.42893 25.0466 1.21793 22.1229C0.00692487 19.1993 -0.309928 15.9823 0.307435 12.8786C0.924799 9.77487 2.44865 6.92394 4.68629 4.6863C6.92393 2.44866 9.77486 0.924806 12.8786 0.307443C15.9823 -0.309921 19.1993 0.0069325 22.1229 1.21793C25.0466 2.42894 27.5454 4.4797 29.3035 7.11088C31.0616 9.74207 32 12.8355 32 16C31.9952 20.242 30.308 24.3089 27.3084 27.3085C24.3089 30.308 20.242 31.9952 16 32ZM14.587 12.2V24H17.4V12.2H14.587ZM14.587 8.07501V10.481H17.413V8.07001L14.587 8.07501Z" fill="#EC6E0C"/>
</svg>
