<svg xmlns="http://www.w3.org/2000/svg" width="20" height="20" viewBox="0 0 20 20"><defs><style>.a{fill:none;}.b{fill:#ec6e0c;}</style></defs><path class="b" d="M5.653,10.835,3.336,13.16a.428.428,0,0,0,0,.592l2.317,2.325a.414.414,0,0,0,.708-.292v-1.5H11.37a.833.833,0,0,0,0-1.667H6.361V11.127A.412.412,0,0,0,5.653,10.835ZM17.745,8.16,15.428,5.835a.414.414,0,0,0-.708.292V7.618H9.7a.833.833,0,0,0,0,1.667h5.008v1.492a.412.412,0,0,0,.708.292l2.317-2.325a.41.41,0,0,0,.008-.583Z" transform="translate(-0.536 -0.952)"/></svg>