<svg xmlns="http://www.w3.org/2000/svg" width="20" height="20" viewBox="0 0 20 20"><defs><style>.a{fill:none;}.b{fill:#ec6e0c;}</style></defs><path class="b" d="M15.825,10.533l-2.7-1.35a4.541,4.541,0,0,0,1.767-3.6A4.583,4.583,0,1,0,8.225,9.658v2.717a10.1,10.1,0,0,0-1.883-.367,1.653,1.653,0,0,0-1.175.492L4,13.683l4.242,4.242a1.929,1.929,0,0,0,1.375.575h5.25a1.657,1.657,0,0,0,1.642-1.392l.667-3.925A2.494,2.494,0,0,0,15.825,10.533Zm-.292,2.375-.667,3.925H9.617a.308.308,0,0,1-.2-.083L6.35,13.683l3.542.742V5.583a.417.417,0,1,1,.833,0v5h1.467l2.883,1.442A.839.839,0,0,1,15.533,12.908ZM7.392,5.583a2.917,2.917,0,0,1,5.833,0,2.887,2.887,0,0,1-.833,2.033V5.583a2.083,2.083,0,0,0-4.167,0V7.617A2.887,2.887,0,0,1,7.392,5.583Z" transform="translate(-0.667 -0.167)"/></svg>