<svg xmlns="http://www.w3.org/2000/svg" width="20" height="20" viewBox="0 0 20 20"><defs><style>.a{fill:none;}.b{fill:#ec6e0c;}</style></defs><path class="b" d="M10.167,5.408a8.142,8.142,0,0,1,7.35,4.583,8.039,8.039,0,0,1-2.008,2.6l1.175,1.175a9.835,9.835,0,0,0,2.65-3.775,9.861,9.861,0,0,0-12.2-5.775L8.508,5.592A8.423,8.423,0,0,1,10.167,5.408Zm-.892.95L11,8.083A2.082,2.082,0,0,1,12.067,9.15l1.725,1.725a3.9,3.9,0,0,0,.117-.892,3.736,3.736,0,0,0-3.742-3.742A3.537,3.537,0,0,0,9.275,6.358ZM1.842,3.633,4.075,5.867A9.781,9.781,0,0,0,1,9.992a9.856,9.856,0,0,0,9.167,6.25,9.775,9.775,0,0,0,3.6-.683l2.85,2.85,1.175-1.175L3.017,2.45Zm6.25,6.25,2.175,2.175a.418.418,0,0,1-.1.017A2.084,2.084,0,0,1,8.083,9.992C8.083,9.95,8.092,9.925,8.092,9.883ZM5.258,7.05,6.717,8.508a3.834,3.834,0,0,0-.3,1.483,3.754,3.754,0,0,0,5.225,3.45l.817.817a8.694,8.694,0,0,1-2.292.317,8.142,8.142,0,0,1-7.35-4.583A8.252,8.252,0,0,1,5.258,7.05Z" transform="translate(-0.167 -0.408)"/></svg>