<svg xmlns="http://www.w3.org/2000/svg" width="20" height="20" viewBox="0 0 20 20"><defs><style>.a{fill:none;}.b{fill:#ec6e0c;}</style></defs><path class="b" d="M10.167,5.667a8.142,8.142,0,0,1,7.35,4.583,8.185,8.185,0,0,1-14.7,0,8.142,8.142,0,0,1,7.35-4.583m0-1.667A9.856,9.856,0,0,0,1,10.25a9.847,9.847,0,0,0,18.333,0A9.856,9.856,0,0,0,10.167,4Zm0,4.167A2.083,2.083,0,1,1,8.083,10.25a2.084,2.084,0,0,1,2.083-2.083m0-1.667a3.75,3.75,0,1,0,3.75,3.75A3.756,3.756,0,0,0,10.167,6.5Z" transform="translate(-0.167 -0.667)"/></svg>