<svg xmlns="http://www.w3.org/2000/svg" width="20" height="20" viewBox="0 0 20 20"><defs><style>.a{fill:none;}.b{fill:#ec6e0c;}</style></defs><g transform="translate(1.708 1.667)"><path class="b" d="M16.217,4.425A8.18,8.18,0,0,0,10.375,2,8.264,8.264,0,0,0,3.217,14.383L2.05,18.667l4.375-1.15a8.26,8.26,0,0,0,3.95,1.008h0a8.261,8.261,0,0,0,5.842-14.1Zm-5.842,12.7h0a6.885,6.885,0,0,1-3.5-.958l-.25-.15-2.6.683.692-2.533-.167-.258A6.867,6.867,0,0,1,10.367,3.392a6.867,6.867,0,0,1,.008,13.733Zm3.767-5.133c-.208-.1-1.225-.6-1.408-.675s-.325-.1-.467.1-.533.675-.65.808-.242.158-.45.05A5.553,5.553,0,0,1,9.508,11.25a6.305,6.305,0,0,1-1.15-1.433c-.117-.208-.017-.317.092-.425.092-.092.208-.242.308-.358a1.444,1.444,0,0,0,.208-.342.382.382,0,0,0-.017-.358c-.05-.1-.467-1.117-.633-1.533-.167-.4-.342-.35-.467-.358h-.4A.749.749,0,0,0,6.9,6.7a2.351,2.351,0,0,0-.717,1.725,4.014,4.014,0,0,0,.842,2.133,9.148,9.148,0,0,0,3.525,3.117,10.086,10.086,0,0,0,1.175.433,2.855,2.855,0,0,0,1.3.083,2.1,2.1,0,0,0,1.392-.983,1.628,1.628,0,0,0,.117-.983C14.475,12.133,14.35,12.092,14.142,11.992Z" transform="translate(-2.05 -2)"/></g></svg>